<?xml version="1.0" encoding="UTF-8"?>
<svg id="Layer_2" xmlns="http://www.w3.org/2000/svg" version="1.1" viewBox="0 0 20 6.6">
  <!-- Generator: Adobe Illustrator 30.1.0, SVG Export Plug-In . SVG Version: 2.1.1 Build 136)  -->
  <defs>
    <style>
      .st0 {
        fill: #e8e8e8;
      }
    </style>
  </defs>
  <g id="Layer_1-2">
    <g>
      <path class="st0" d="M6.1,6.6c1.7,0,2.6,0,3.2-1.4l.8-1.7.3-.6h0v3.7h2.7L16.4,0h-2.5l-1.7,4.1h0V0h-2.2l-.3.6-1.6,3.4h0V0h0s-4.8,0-4.8,0L0,6.6h6.1ZM5.1,5h-2.3l1.6-3.3h1.4c1.2,0,1.5.6,1.3,1.6-.2.9-.6,1.4-1.4,1.6-.2,0-.4,0-.6,0Z"/>
      <polygon class="st0" points="15.2 6.6 18.5 0 16.9 0 13.7 6.6 15.2 6.6"/>
      <polygon class="st0" points="16.8 6.6 20 0 19 0 15.8 6.6 16.8 6.6"/>
    </g>
  </g>
</svg>